<?xml version="1.0" encoding="UTF-8" standalone="no"?>
<!-- Created with Inkscape (http://www.inkscape.org/) -->

<svg
   width="210mm"
   height="297mm"
   viewBox="0 0 210 297"
   version="1.1"
   id="svg1"
   inkscape:version="1.3.2 (091e20e, 2023-11-25)"
   sodipodi:docname="Greeting.svg"
   xmlns:inkscape="http://www.inkscape.org/namespaces/inkscape"
   xmlns:sodipodi="http://sodipodi.sourceforge.net/DTD/sodipodi-0.dtd"
   xmlns="http://www.w3.org/2000/svg"
   xmlns:svg="http://www.w3.org/2000/svg">
  <sodipodi:namedview
     id="namedview1"
     pagecolor="#ffffff"
     bordercolor="#000000"
     borderopacity="0.25"
     inkscape:showpageshadow="2"
     inkscape:pageopacity="0.0"
     inkscape:pagecheckerboard="0"
     inkscape:deskcolor="#d1d1d1"
     inkscape:document-units="mm"
     inkscape:zoom="0.56"
     inkscape:cx="386.60714"
     inkscape:cy="300"
     inkscape:window-width="784"
     inkscape:window-height="773"
     inkscape:window-x="729"
     inkscape:window-y="83"
     inkscape:window-maximized="0"
     inkscape:current-layer="layer1" />
  <defs
     id="defs1" />
  <g
     inkscape:label="Layer 1"
     inkscape:groupmode="layer"
     id="layer1">
    <path
       style="font-size:23.2604px;font-family:'Bradley Hand';-inkscape-font-specification:'Bradley Hand';fill:none;stroke:#000000;stroke-width:1.072"
       d="m 43.485351,29.114533 -0.279125,0.232604 q 0.06978,0.09304 0.255865,0.325646 l -0.883895,0.55825 h -0.09304 q -0.116302,0 -0.302385,-0.06978 l -0.279125,0.232604 -0.395427,-0.04652 -0.418687,0.348906 -0.395427,-0.232604 -0.488468,0.139562 -0.465208,0.279125 q -0.04652,-0.02326 -0.116302,-0.02326 -0.186083,0 -0.209344,0.116302 l -0.186083,0.767594 q 0.09304,0.162822 0.09304,0.279124 0,0.162823 -0.06978,0.348906 l -0.06978,0.186084 0.09304,0.04652 q 0,0.395427 -0.186083,0.697812 0.139562,0.325646 0.186083,0.511729 l -0.209344,0.162823 0.02326,0.837375 -0.209344,1.20954 -0.02326,0.232604 q 0.04652,0.279125 0.04652,0.372167 v 0.116302 l 0.09304,0.232604 0.02326,0.418687 q -0.02326,0.116302 -0.116302,0.348906 -0.02326,0.790854 -1.139759,0.837374 l -0.04652,-0.511728 -0.186083,-0.302386 -0.139563,-0.418687 v -0.814114 l -0.162823,-0.488468 0.06978,-0.04652 -0.06978,-0.348906 v -0.58151 l 0.06978,-0.907156 -0.04652,-0.814114 0.139562,-0.465208 v -0.534989 q 0,-0.162823 0.04652,-0.441948 0.06978,-0.279124 0.06978,-0.418687 0,-0.232604 -0.139562,-0.441947 l -0.04652,-0.06978 -0.06978,0.04652 -0.302385,-0.09304 q -0.418688,0.116302 -0.790854,0.116302 -0.255864,0 -0.372166,-0.02326 l -1.000198,0.302385 -1.069978,-0.116302 q -0.418687,-0.04652 -0.58151,-0.04652 -0.302385,0 -0.837375,0.162822 h -0.09304 l -0.534989,0.232604 -0.372167,-0.255864 -0.58151,0.116302 -0.06978,-0.04652 -0.09304,0.04652 -0.465208,-0.02326 -0.04652,0.186083 -0.651292,-0.255865 q -0.395426,0.04652 -0.58151,0.06978 v 1.069978 l -0.06978,0.534989 0.116302,0.441948 -0.186083,0.348906 0.162823,0.325645 -0.162823,1.000198 0.09304,0.302385 -0.04652,0.55825 0.209343,0.465208 -0.09304,0.209343 0.04652,0.279125 q -0.02326,0.511729 -0.58151,0.511729 -0.953677,0 -0.953677,-1.72127 L 27.016988,35.32506 26.900686,35.045936 q 0,-0.302386 0.139562,-0.511729 l 0.04652,-0.395427 -0.06978,-0.232604 -0.116302,-1.814311 v -0.488469 l -0.04652,-0.06978 -0.465208,-0.255864 -0.06978,-1.13976 0.651292,-0.372166 q 0.116302,-0.372167 0.116302,-0.930416 0,-0.53499 -0.116302,-0.907156 l 0.139562,0.06978 -0.02326,-0.325646 0.139562,-0.488468 -0.139562,-0.814114 v -0.534989 l 0.162823,-0.814114 0.907155,-0.488469 0.441948,0.325646 0.488468,0.162823 0.06978,0.511729 0.209344,0.302385 q -0.116302,0.325645 -0.209344,0.674551 0.06978,0.372167 0.06978,0.790854 0,0.651291 -0.162823,1.279322 l 0.209343,0.441948 -0.232604,0.325645 v 0.279125 l 0.209344,0.06978 0.55825,-0.06978 0.395426,0.04652 0.628031,-0.06978 0.186083,0.06978 q 0.116302,-0.02326 0.255865,-0.02326 0.09304,0 0.279125,0.04652 l 0.04652,0.02326 h 0.348906 q 0.02326,0 0.348906,-0.02326 0.348906,-0.02326 0.697813,-0.02326 l 0.372166,-0.232604 0.348906,0.209344 0.348906,0.02326 0.116302,0.02326 q 0.186083,-0.04652 0.302385,-0.04652 h 0.116302 l 2.465603,-0.255865 0.348906,0.02326 0.116302,-0.06978 -0.116302,-0.395426 0.116302,-0.348906 -0.162823,-0.953677 0.162823,-0.302385 -0.418688,-1.116499 -0.04652,-0.162823 -0.09304,-0.116302 q 0.02326,-0.04652 0.09304,-0.209344 0.04652,-0.09304 0.04652,-0.09304 v -0.09304 q 0,-0.186083 0.372167,-0.348906 l 0.232604,-0.651291 0.651291,0.116302 0.279125,0.162823 0.651291,-0.139563 v 0.325646 l 0.279125,-0.06978 v 1.093238 l -0.116302,0.186084 0.186083,0.465208 v 0.302385 l 0.116302,0.372166 -0.186083,0.441948 0.06978,0.302385 -0.116302,1.069979 v 0.162822 l 0.488469,-0.02326 0.907155,-0.209344 0.441948,0.04652 0.279125,-0.04652 h 0.511728 q 0.186084,-0.09304 0.395427,-0.09304 0.139563,0 0.348906,0.09304 z m 3.768172,-7.675932 q 0,0.279125 -0.372166,0.511729 v 0.04652 q -0.441948,0.534989 -0.767594,0.60477 l -0.348906,0.418687 -0.232604,0.302386 -0.534989,0.139562 -0.232604,0.325646 -0.372166,0.186083 -0.604771,0.534989 -0.372166,-0.348906 0.06978,-0.58151 0.255864,-0.418687 q 0.02326,-0.325646 0.372167,-0.55825 v -0.09304 l 0.139562,-0.09304 0.02326,-0.348906 0.372166,-0.09304 v -0.209343 l 0.279125,-0.04652 q 0.09304,-0.465208 0.395427,-0.674552 l 0.06978,-0.04652 0.139562,-0.139562 0.186083,-0.55825 q 1.535187,0.372167 1.535187,1.13976 z m 2.372561,12.328012 q 0,0.53499 -0.186083,0.674552 l -0.116302,0.09304 -0.116302,0.325645 -0.372167,0.116302 q -0.162823,0.372167 -0.488468,0.58151 l -0.209344,0.06978 -0.302385,0.325645 -0.279125,0.06978 q -0.162823,0.418688 -0.674551,0.441948 -0.04652,0.06978 -0.209344,0.279125 -0.348906,0.232604 -0.721073,0.279125 l -0.116302,0.02326 -0.162822,0.209344 h -0.465208 l -0.372167,0.279124 -0.953676,-0.697812 -0.441948,-0.907155 -0.02326,-1.13976 -0.09304,-0.279125 0.279125,-2.046915 0.09304,-0.09304 q -0.06978,-0.348906 -0.06978,-0.674551 0,-0.209344 0.139563,-0.860635 l 0.116302,-0.534989 q -0.04652,-0.139563 -0.186083,-0.302385 l 0.139562,-0.441948 0.04652,-0.534989 0.04652,-0.06978 q -0.09304,-0.209344 -0.116302,-0.465208 0.02326,-0.04652 0.04652,-0.116303 0.02326,-0.09304 0.02326,-0.139562 -0.06978,-0.209344 -0.06978,-0.395427 0,-0.558249 0.62803,-0.511729 l 0.279125,0.02326 q 0.279125,-0.139563 0.348906,-0.139563 0.465208,0 0.628031,0.511729 v 0.09304 q 0.09304,0.279125 0.09304,0.534989 0,0.209344 -0.04652,0.302385 l -0.162823,1.16302 0.162823,0.325646 q 0,0.418687 -0.279125,0.744333 l 0.09304,0.279125 -0.302386,0.883895 q -0.04652,0.58151 -0.116302,0.883895 v 0.58151 l -0.139562,0.325646 0.02326,0.232604 -0.04652,0.534989 0.04652,0.418687 0.348906,0.279125 0.279125,-0.04652 0.04652,-0.06978 0.186083,0.02326 0.302386,-0.09304 0.255864,-0.255865 0.09304,-0.139562 0.162822,-0.02326 0.04652,-0.116302 0.06978,-0.09304 0.139563,0.09304 0.232604,-0.232605 0.139562,0.02326 0.04652,-0.162823 h 0.04652 l 0.06978,-0.186083 0.209344,-0.09304 0.441947,-0.209343 q 0.534989,-0.372167 1.046718,-0.372167 h 0.09304 q 0.255864,0.162823 0.348906,0.418687 z m 4.791622,2.419082 -0.348906,0.534989 -0.325646,0.162823 -0.139562,0.186083 -0.348906,0.302386 -0.139563,0.186083 -0.418687,0.255864 -0.790854,0.790854 -0.418687,0.186083 q -0.162823,0.325646 -0.441947,0.534989 l -0.09304,0.06978 -0.162823,0.302386 -0.325645,0.302385 q -0.395427,0.116302 -0.581511,0.116302 -0.06978,0 -0.348906,-0.04652 -0.02326,-0.09304 -0.02326,-0.279125 0,-0.209343 0.09304,-0.511729 l 0.06978,-0.232604 0.06978,-0.09304 q 0.06978,-0.372167 0.465208,-0.55825 l 0.02326,-0.06978 0.232604,-0.325646 0.09304,-0.325645 0.116302,-0.162823 0.255865,-0.116302 0.04652,-0.09304 q 0.02326,-0.139562 0.186084,-0.232604 l 0.139562,-0.09304 v -0.232604 l 0.209344,-0.04652 q 0,-0.255864 0.139562,-0.534989 l 0.232604,-0.186083 q 0,-0.06978 0.04652,-0.209344 0,-0.04652 0.02326,-0.116302 0,-0.09304 0,-0.116302 l 0.139563,-0.186083 q 0.325645,-0.418687 0.860634,-0.418687 0.372167,0 0.860635,0.209343 l 0.06978,0.09304 0.441948,0.116302 z m 12.188416,-10.025233 -0.06978,0.02326 -0.139562,0.883895 0.02326,0.511729 0.09304,0.06978 -0.232604,0.534989 0.04652,0.395427 -0.209343,0.441948 q -0.09304,0.302385 -0.162823,0.488468 0.06978,0.139563 0.06978,0.302385 0,0.186084 -0.09304,0.348906 l 0.209343,0.790854 h -0.279125 l -0.02326,0.04652 0.162823,0.325645 -0.162823,0.628031 h -0.06978 l -0.116302,0.465208 q 0.116302,0 0.162823,-0.02326 l -0.06978,0.465208 0.162823,0.418687 -0.162823,0.325646 0.02326,0.721072 -0.06978,0.302385 q 0.209343,0.232604 0.209343,0.441948 0,0.139562 -0.116302,0.302385 -0.09304,0.162823 -0.09304,0.209344 0,0 0.209343,0.162823 0.209344,0.139562 0.395427,0.395426 l -0.279125,0.232604 0.348906,0.186084 q -0.09304,0.930416 -0.674551,0.930416 -0.58151,0 -0.767594,-0.511729 l -0.116302,-0.162823 q -0.372166,-0.511729 -0.372166,-0.721072 l -0.465208,-0.488469 0.209344,-0.232604 -0.139563,-0.186083 0.04652,-0.488468 -0.04652,-0.162823 q -0.06978,-0.232604 -0.06978,-0.372167 0,-0.139562 0.06978,-0.302385 l -0.04652,-0.186083 -0.02326,-0.744333 0.06978,-0.09304 -0.04652,-1.325842 0.186084,-1.1165 -0.09304,-1.16302 0.06978,-0.116302 -0.116302,-0.06978 0.139563,-0.465208 v -0.162823 l -0.162823,-0.02326 0.116302,-0.511729 q -0.279125,-0.325646 -0.348906,-0.907156 h 0.302385 l 0.279125,-0.697812 0.04652,0.04652 0.139562,-0.372166 -0.116302,0.139562 V 25.46265 h 0.395427 l 0.06978,-0.209343 0.441948,-0.162823 q 0.58151,0.04652 0.907155,0.186083 0.348906,0.325646 0.348906,0.767593 z m 5.466178,0.674552 -0.116302,0.372166 -0.139562,0.232604 -0.02326,0.186084 0.09304,0.325645 -0.209344,0.488469 v 0.302385 l 0.04652,0.302385 -0.209343,0.837375 -0.674552,0.139562 -0.604771,-0.348906 0.04652,-0.628031 V 28.90519 q -0.139562,-0.209344 -0.139562,-0.418687 0,-0.139563 0.02326,-0.209344 l -0.02326,-0.116302 0.02326,-0.162823 -0.116302,-0.209344 0.04652,-0.116302 q 0,-0.04652 -0.04652,-0.232604 l -0.162823,-0.162822 0.02326,-0.279125 -0.06978,-0.232604 0.04652,-0.06978 -0.06978,-0.139563 0.02326,-0.04652 -0.09304,-0.09304 0.04652,-0.465208 0.139562,-0.279125 0.255865,-0.255864 0.488468,-0.09304 q 0.372167,-0.06978 0.488469,-0.06978 0.372166,0 0.860634,0.628031 l -0.09304,0.372166 0.09304,0.139562 z m 22.097373,7.582891 q -0.116302,0.325645 -0.302385,0.488468 -0.06978,0.255865 -0.209344,0.372167 -0.116302,0.232604 -0.279125,0.325645 l -0.09304,0.139563 q -0.09304,0.139562 -0.255865,0.139562 l -0.116302,0.232604 h -0.162823 l -0.116302,0.209344 -0.186083,0.06978 -0.139562,0.162823 -0.116302,0.09304 q -0.348906,0 -0.58151,0.209344 -0.302385,0.116302 -0.628031,0.116302 -0.325646,0 -0.651291,-0.162823 -0.372167,-0.02326 -0.372167,-0.116302 l -0.325645,-0.04652 -0.06978,-0.06978 -0.139563,-0.279125 -0.255864,-0.209343 Q 88.912822,35.790268 88.889562,35.534404 88.726739,35.3018 88.563916,34.650509 l -0.232604,-0.372167 v -0.209343 l -0.162823,-0.697812 0.02326,-0.279125 -0.139563,-0.721073 0.06978,-0.58151 -0.116302,-0.162822 -0.232604,0.58151 q -0.441948,0.488468 -0.53499,0.60477 -0.06978,0.09304 -0.186083,0.09304 -0.02326,0 -0.09304,-0.02326 l -0.139563,0.255865 q -0.02326,0.02326 -0.02326,0.09304 0,0.139563 0.162823,0.162823 -0.04652,0.04652 -0.232604,0.325646 -0.09304,0.186083 -0.162823,0.255864 l -0.06978,-0.116302 -0.04652,0.325646 q -0.302385,0.232604 -0.418687,0.697812 -0.232604,0.302385 -0.721073,0.860635 l -0.302385,0.325645 q -0.116302,0 -0.116302,0.04652 v 0.04652 q -0.139562,0.325645 -0.488468,0.511729 L 84.12118,37.02307 h -0.162823 l -0.55825,0.209343 q -0.697812,-0.04652 -0.860634,-0.60477 l -0.02326,-0.255865 -0.139562,-0.302385 v -0.255864 l -0.186084,-0.674552 v -0.209343 l -0.139562,-0.232604 0.09304,-0.721073 q -0.02326,-0.116302 -0.02326,-0.325646 0,-0.186083 0.02326,-0.255864 l -0.02326,-0.139562 v -0.09304 l -0.116302,-0.255864 0.186083,-0.441948 q -0.04652,-0.186083 -0.139562,-0.60477 l 0.06978,-0.209344 0.06978,-0.674552 -0.186083,-0.488468 0.04652,-0.395427 -0.06978,-0.209343 q -0.02326,-0.06978 -0.162823,-0.441948 l -0.162823,0.09304 -0.302385,0.372166 -0.279125,0.255864 -0.558249,0.697812 -0.04652,0.255865 -0.395427,0.418687 -0.162823,0.325646 -0.162823,0.186083 q -0.06978,0.511729 -0.511728,0.721072 l -0.02326,0.325646 q -0.139562,0.139562 -0.302385,0.372166 -0.139562,0.232604 -0.209344,0.279125 -0.04652,0.02326 -0.186083,0.139562 l -0.279125,0.395427 q 0,0.395427 -0.302385,0.55825 v 0.139562 q -0.139562,0.186084 -0.372166,0.372167 l -0.02326,-0.04652 -0.06978,0.325646 q -0.186083,0 -0.348906,0.441947 l -0.06978,0.09304 q -0.02326,0.372166 -0.395427,0.558249 l -0.325646,0.302386 q -0.372166,0.186083 -0.488468,0.186083 -0.60477,0 -0.790854,-1.000197 l -0.09304,-0.511729 q -0.02326,-0.04652 -0.02326,-0.139563 0,-0.162822 0.06978,-0.325645 l -0.116302,-0.441948 0.04652,-0.372166 -0.04652,-0.372167 q 0.04652,-0.488468 0.162822,-0.60477 -0.06978,-0.488469 -0.06978,-0.55825 v -0.418687 q 0.09304,-0.162823 0.232604,-0.418687 l -0.139562,-0.139563 q -0.04652,-0.186083 -0.04652,-0.209343 0,-0.162823 0.279125,-0.55825 l -0.162823,-0.441947 0.09304,-0.279125 -0.139563,-0.674552 0.04652,-0.325645 -0.116302,-0.511729 0.02326,-0.348906 -0.209343,-0.418688 q 0.465208,-0.907155 1.000197,-0.907155 0.279125,0 0.534989,0.232604 l 0.04652,0.232604 q 0.395427,0.209343 0.395427,0.628031 0,-0.06978 -0.06978,0.488468 l -0.09304,-0.02326 0.209344,0.395427 -0.139563,0.186083 -0.02326,0.09304 0.139562,1.069979 -0.04652,0.907155 -0.06978,0.162823 0.09304,0.372167 q 0.06978,0.09304 0.06978,0.232604 0,0.186083 -0.186083,0.372166 0,0.325646 -0.116302,0.534989 l 0.06978,0.697812 v 0.279125 l 0.02326,-0.04652 0.139562,-0.209343 0.325646,-0.58151 h 0.06978 q 0.139562,0 0.302385,-0.441948 l 0.162823,-0.441948 q 0.04652,-0.139562 0.348906,-0.441947 l 0.09304,-0.418687 0.279125,-0.418688 0.09304,-0.325645 q 0.116302,-0.06978 0.232604,-0.162823 l 0.02326,-0.06978 q 0.06978,-0.09304 0.511729,-0.488469 l 0.139562,-0.06978 0.04652,-0.232604 0.116302,-0.06978 q 0.116302,-0.488468 0.58151,-0.651291 l -0.09304,-0.06978 0.09304,-0.04652 q -0.02326,-0.02326 -0.02326,-0.06978 0,-0.04652 0.04652,-0.139563 l 0.372166,-0.162823 0.06978,-0.372166 h 0.255865 q 0,-0.02326 0.04652,-0.162823 l 0.465208,-0.372166 q 0.325646,-0.09304 0.441948,-0.09304 0.279125,0 0.767593,0.162823 l 0.232604,0.325645 0.09304,0.04652 0.116302,0.279125 0.325646,0.441948 v 0.302385 l 0.209343,0.232604 v 0.348906 q 0.255865,0.55825 0.255865,0.953676 l -0.06978,0.279125 0.139563,0.395427 -0.255865,0.255864 0.09304,0.511729 -0.02326,0.139563 -0.02326,0.116302 q -0.04652,0.232604 -0.04652,0.348906 0,0.116302 0.116302,0.465208 l -0.06978,0.255864 0.06978,0.325646 -0.06978,0.06978 q 0.04652,0.325645 0.139563,1.093239 l -0.02326,0.09304 0.744333,-0.814114 0.232604,-0.441947 q 0.09304,-0.139563 0.302385,-0.441948 v -0.04652 q 0.09304,-0.372166 0.302385,-0.511729 0,-0.139562 0.232604,-0.348906 l 0.186084,-0.116302 q 0.09304,-0.395426 0.488468,-0.651291 l 0.116302,-0.325645 0.209344,-0.279125 0.232604,-0.232604 q 0.209343,-0.162823 0.325645,-0.511729 l 0.186083,-0.279125 0.09304,-0.348906 0.255864,-0.139562 0.255865,-0.325646 0.255864,-0.558249 q -0.09304,0 -0.09304,-0.04652 0,0 0.04652,-0.09304 l 0.162823,-0.139562 0.186084,-0.372167 q 0.395426,-0.139562 0.441947,-0.139562 0,0 0.09304,0.04652 l 0.418687,0.02326 0.372166,0.162823 0.325646,0.372166 0.06978,0.325646 -0.02326,0.255864 -0.116302,0.09304 -0.255865,0.488468 -0.09304,0.53499 q 0.116302,0.116302 0.116302,0.418687 -0.09304,0.116302 -0.09304,0.302385 l -0.09304,0.186083 q 0.04652,0.116302 0.04652,0.372167 0,0.209343 -0.02326,0.302385 l -0.09304,0.116302 0.09304,0.162823 -0.162823,0.209343 q 0.139563,0 0.139563,0.302385 0.04652,0.139563 0.04652,0.186084 0,0.06978 -0.04652,0.162822 0.04652,0.232604 0.04652,0.441948 v 0.04652 q 0,0.04652 0.302386,0.953676 l 0.04652,0.232604 0.255865,0.279125 0.139562,0.325646 0.139563,0.06978 0.09304,0.139562 0.116302,0.02326 0.209344,0.04652 0.116302,-0.02326 h 0.06978 q 0.232604,0 0.55825,-0.186083 0.09304,-0.232604 0.488468,-0.488468 0.02326,-0.116302 0.279125,-0.441948 l 0.395427,-0.279125 0.139562,-0.279125 q 0.186083,-0.116302 0.395427,-0.116302 0.255864,0 0.558249,0.139563 0.139563,0.232604 0.139563,0.697812 z m 21.283267,1.698009 q 0,0.883895 -1.48867,1.093239 l -0.4652,-0.139563 q -0.11631,0.04652 -0.30239,0.04652 -0.16282,0 -0.37217,-0.09304 -0.20934,-0.09304 -0.3489,-0.09304 -0.69781,-0.02326 -1.09324,-0.488468 l -0.0465,-0.02326 q -0.44195,-0.139562 -0.83738,-0.511729 l -0.3489,-0.209343 -0.39543,-0.372167 -0.46521,-0.534989 -1.04672,-1.116499 -0.53498,-0.860635 -0.0465,-0.116302 q -0.13956,0.209344 -0.27912,0.488468 l -0.32565,0.04652 -0.81411,0.651291 -0.41869,0.302386 -0.27912,0.511729 -1.67475,1.232801 -0.32565,0.534989 -0.69781,0.255864 -0.25586,0.279125 -0.27913,0.02326 -0.51173,0.534989 -0.32564,0.116302 -0.34891,0.209343 -0.13956,0.04652 -0.093,0.116302 q -0.32565,0.395427 -0.62803,0.395427 -0.628033,0 -0.628033,-0.767593 0.651293,-0.488469 0.814113,-0.883895 l 0.18608,-0.04652 q 0,-0.02326 0.0465,-0.255865 0.72108,-0.209343 0.93042,-0.767593 l 0.51173,-0.232604 0.20934,-0.162823 q 0.18609,-0.116302 0.53499,-0.58151 l 0.51173,-0.279125 0.27913,-0.325645 q 0.27912,-0.09304 0.30238,-0.395427 l 0.39543,-0.09304 0.44195,-0.488468 v -0.232604 l 0.39542,-0.209344 0.20935,-0.488468 0.30238,-0.02326 0.27913,-0.418688 0.25586,-0.06978 0.0233,-0.186083 0.34891,-0.232604 q -0.25587,-0.534989 -0.58151,-0.837374 l -0.20935,-0.232604 q -0.1163,-0.116302 -0.32564,-0.418688 l -0.1163,-0.209343 -0.34891,-0.279125 -0.8839,-0.930416 -0.18608,-0.279125 -0.25586,-0.255864 -0.51173,-0.232604 q -1.20954,-0.767594 -1.20954,-1.535187 0,-0.116302 0.0465,-0.255864 l 0.18608,-0.06978 0.0698,-0.302386 0.55825,-0.232604 0.7676,0.09304 0.32564,0.325646 0.51173,0.02326 0.16282,0.302385 0.25587,0.116302 0.13956,0.348906 0.30238,0.116302 0.23261,0.348906 0.48847,0.232604 v 0.488469 l 0.74433,0.697812 0.093,0.232604 h 0.093 l 0.44195,0.60477 0.2326,0.58151 0.18609,0.139563 q 0.27912,-0.279125 0.55825,-0.418688 l 0.1163,-0.209343 v -0.139563 l 0.69781,-0.60477 0.37217,-0.465208 0.1163,-0.209344 0.30238,-0.395427 0.48847,-0.488468 0.093,-0.255864 q 0.0465,-0.04652 0.25587,-0.279125 0.0233,-0.116302 0.0698,-0.372167 l 0.48847,-0.651291 0.34891,-0.325645 0.55824,-0.116302 q 0.8839,0.232604 0.8839,1.093238 0,0.139563 -0.32565,0.744333 -0.16282,0.162823 -0.39542,0.511729 v 0.139562 l -0.0698,0.139563 h -0.11631 l -0.16282,0.302385 -0.13956,0.09304 -0.34891,0.348906 -0.18608,0.232604 -0.093,0.302385 -0.20935,0.09304 -0.093,0.255864 -0.25586,0.162823 q -0.13956,0.09304 -0.27913,0.348906 -0.13956,0.255864 -0.25586,0.372166 l -0.13956,0.04652 -0.30239,0.441948 -0.37216,0.325645 -0.25587,0.372167 -0.18608,0.116302 0.2326,0.325645 0.18608,0.441948 q 0.37217,0.418687 0.51173,0.58151 l 0.58151,0.721072 0.0698,0.279125 0.58151,0.418687 0.46521,0.465208 0.44195,0.186084 0.44195,0.395426 q 0.30238,0.09304 0.81411,0.279125 h 0.27913 l 0.1163,-0.139562 0.2326,-0.441948 q 0.48847,0.09304 1.09324,0.511729 0.41869,0.372166 0.41869,0.697812 z m 5.11729,-14.677313 q 0,0.279125 -0.37217,0.511729 v 0.04652 q -0.44195,0.534989 -0.76759,0.60477 l -0.34891,0.418687 -0.2326,0.302386 -0.53499,0.139562 -0.23261,0.325646 -0.37216,0.186083 -0.60477,0.534989 -0.37217,-0.348906 0.0698,-0.58151 0.25587,-0.418687 q 0.0233,-0.325646 0.37216,-0.55825 v -0.09304 l 0.13957,-0.09304 0.0233,-0.348906 0.37216,-0.09304 v -0.209343 l 0.27913,-0.04652 q 0.093,-0.465208 0.39542,-0.674552 l 0.0698,-0.04652 0.13957,-0.139562 0.18608,-0.55825 q 1.53519,0.372167 1.53519,1.13976 z m 2.37256,12.328012 q 0,0.53499 -0.18609,0.674552 l -0.1163,0.09304 -0.1163,0.325645 -0.37217,0.116302 q -0.16282,0.372167 -0.48846,0.58151 l -0.20935,0.06978 -0.30238,0.325645 -0.27913,0.06978 q -0.16282,0.418688 -0.67455,0.441948 -0.0465,0.06978 -0.20934,0.279125 -0.34891,0.232604 -0.72108,0.279125 l -0.1163,0.02326 -0.16282,0.209344 h -0.46521 l -0.37216,0.279124 -0.95368,-0.697812 -0.44195,-0.907155 -0.0233,-1.13976 -0.093,-0.279125 0.27912,-2.046915 0.0931,-0.09304 q -0.0698,-0.348906 -0.0698,-0.674551 0,-0.209344 0.13957,-0.860635 l 0.1163,-0.534989 q -0.0465,-0.139563 -0.18608,-0.302385 l 0.13956,-0.441948 0.0465,-0.534989 0.0465,-0.06978 q -0.093,-0.209344 -0.1163,-0.465208 0.0233,-0.04652 0.0465,-0.116303 0.0233,-0.09304 0.0233,-0.139562 -0.0698,-0.209344 -0.0698,-0.395427 0,-0.558249 0.62803,-0.511729 l 0.27912,0.02326 q 0.27913,-0.139563 0.34891,-0.139563 0.46521,0 0.62803,0.511729 v 0.09304 q 0.093,0.279125 0.093,0.534989 0,0.209344 -0.0465,0.302385 l -0.16282,1.16302 0.16282,0.325646 q 0,0.418687 -0.27912,0.744333 l 0.093,0.279125 -0.30239,0.883895 q -0.0465,0.58151 -0.1163,0.883895 v 0.58151 l -0.13956,0.325646 0.0233,0.232604 -0.0465,0.534989 0.0465,0.418687 0.3489,0.279125 0.27913,-0.04652 0.0465,-0.06978 0.18608,0.02326 0.30239,-0.09304 0.25586,-0.255865 0.093,-0.139562 0.16283,-0.02326 0.0465,-0.116302 0.0698,-0.09304 0.13956,0.09304 0.23261,-0.232605 0.13956,0.02326 0.0465,-0.162823 h 0.0465 l 0.0698,-0.186083 0.20934,-0.09304 0.44195,-0.209343 q 0.53499,-0.372167 1.04672,-0.372167 h 0.093 q 0.25587,0.162823 0.34891,0.418687 z m 16.11944,-0.372166 q 0,0.186083 -0.30239,0.488468 l -0.25586,0.395427 -0.093,0.465208 -0.20935,0.06978 -0.0465,0.139562 q -0.37216,0.116302 -0.53499,0.58151 -0.25586,0.325646 -0.55825,0.465208 -0.1163,0.116302 -0.20934,0.162823 l -0.1163,0.209343 -0.20935,0.04652 -0.60477,0.325646 -0.79085,0.09304 -0.20934,-0.04652 -0.34891,0.06978 -0.13956,-0.162823 q -0.32565,-0.162823 -0.46521,-0.325646 -0.27912,-0.06978 -0.41869,-0.441947 -0.39542,-0.465208 -0.39542,-0.744333 v -0.06978 l -0.16283,-0.279125 -0.0465,-0.04652 -0.13956,-0.418687 -0.20934,-0.441948 0.0465,-0.534989 -0.23261,-0.302385 -0.3489,-2.000395 q -0.0698,-0.395426 -0.0698,-0.674551 l -0.0465,-0.116302 -0.11631,-0.162823 -0.20934,0.279125 -0.83737,0.883895 -0.30239,0.488468 -0.16282,0.325646 -0.25587,0.372166 -0.18608,0.186084 0.0233,0.116302 -0.32565,0.721072 -0.18608,0.232604 -0.2326,0.04652 -0.20935,0.209343 q 0,0.465208 -0.44194,0.604771 l -0.0465,0.04652 q -0.20935,0.511729 -0.46521,0.628031 l -0.20935,0.325645 q -0.51172,0.465208 -0.67455,0.58151 -0.0698,0.232604 -0.25586,0.395427 -0.0465,0.06978 -0.16282,0.186083 -0.0698,0.395427 -0.6513,0.55825 l -0.25586,0.06978 q -0.46521,-0.02326 -0.76759,-0.534989 l -0.34891,-0.58151 0.1163,-0.55825 -0.0465,-0.302385 0.0465,-0.04652 0.0233,-0.302385 -0.25586,-0.55825 0.18608,-0.279125 -0.093,-0.302385 0.16282,-0.325645 0.0465,-0.53499 -0.093,-0.09304 0.18609,-0.325646 -0.0698,-0.162823 -0.0233,-0.372166 0.093,-0.697812 q -0.0465,-0.232604 -0.0465,-0.302385 0,-0.04652 0.0233,-0.09304 0,-0.06978 0,-0.09304 l -0.1163,-0.186084 0.0698,-0.744332 -0.0233,-0.255865 0.0698,-0.372166 -0.093,-0.628031 0.41869,-0.697812 q 0.72107,0.116302 1.0002,0.325645 0.27912,0.186084 0.27912,0.697813 v 0.209343 l 0.16283,0.279125 -0.0698,0.488468 0.0931,0.930416 -0.16283,0.441948 0.0698,0.488468 v 0.395427 l -0.18608,0.255865 0.13956,0.418687 -0.13956,0.255864 -0.0233,0.255865 0.13956,0.255864 -0.18608,0.488468 -0.0698,0.209344 v 0.209344 l 0.1163,0.232604 0.39543,-0.395427 q 0,-0.348906 0.2326,-0.465208 0.0233,-0.232604 0.18608,-0.348906 l -0.0698,-0.06978 0.30239,-0.279125 0.0698,-0.09304 v -0.209343 l 0.37217,-0.279125 0.093,-0.232604 0.20934,-0.139563 0.90716,-1.023457 q -0.11631,0.139562 -0.7676,0.860635 v 0.04652 l 0.0465,-0.162822 0.30239,-0.348906 0.20934,-0.395427 v -0.232604 l 0.34891,-0.116302 0.0465,-0.302385 0.093,-0.09304 0.0233,-0.116302 v -0.162823 l 0.32565,-0.325645 q 0,-0.04652 0,-0.116302 -0.0233,-0.06978 -0.0233,-0.09304 0,-0.418687 0.46521,-0.465208 0.20934,-0.418687 0.62803,-0.488468 l 0.13956,-0.209344 0.0465,-0.04652 q 0.20934,-0.302385 0.62803,-0.418687 l 0.20934,-0.255865 h 0.55825 l 0.27913,0.325646 0.25586,0.139562 0.0233,0.06978 0.16283,0.04652 0.0465,0.488468 0.39542,0.232604 -0.16282,0.511729 0.25587,0.558249 v 0.651292 l 0.18608,0.883895 0.0465,0.837374 0.20934,0.488469 0.13957,0.60477 q 0.13956,0.139562 0.20934,0.395427 l 0.41869,0.116302 v 0.465208 l 0.2326,0.255864 v 0.06978 l 0.093,0.02326 0.093,0.139562 0.093,-0.116302 q -0.0465,0 0.11631,0.02326 0.25586,0 0.53499,-0.465208 l 0.27912,-0.06978 0.0698,-0.116303 q 0.0698,-0.186083 0.27913,-0.279124 l 0.16282,0.02326 0.093,-0.09304 0.0233,-0.116302 0.0698,-0.09304 q 0.23261,-0.162823 0.30239,-0.488469 l 0.25586,-0.279124 0.0465,-0.209344 0.16283,-0.372166 0.44194,-0.162823 0.62803,0.209343 0.20935,0.674552 q 0,0.02326 0.0233,0.04652 0,0.04652 0,0.06978 z m 11.21151,-10.118274 q 0,0.465208 -0.55825,0.930416 l -0.18608,-0.116302 -0.37217,0.209343 -0.46521,-0.907155 q -0.0465,-0.348906 -0.18608,-0.58151 l -0.13956,0.06978 -0.39543,-0.209344 -0.13956,-0.02326 -0.30239,0.186083 -0.48847,-0.139562 -0.16282,0.06978 q -0.20934,0.232604 -0.41869,0.232604 -0.093,0 -0.16282,-0.02326 v 0.232604 q -0.2326,0.372166 -0.58151,0.907155 -0.0233,0.232604 -0.16282,0.860635 l -0.20935,0.139562 -0.093,0.255865 -0.1163,0.209343 0.1163,0.465208 -0.27912,0.418688 -0.093,0.348906 -0.0931,0.186083 0.0233,0.325645 -0.32564,0.837375 0.0465,0.395427 q -0.0233,0.09304 -0.27913,0.651291 l -0.0233,0.09304 q 0.23261,-0.09304 0.39543,-0.116302 l 0.13956,0.02326 q 0.0465,-0.02326 0.20935,-0.06978 h 0.0698 q 0,0 0.79085,0.04652 l 0.0698,-0.04652 q 0.27913,-0.04652 0.32565,-0.04652 0.2326,0 0.51173,0.116302 0.27912,-0.06978 0.48847,-0.06978 0.18608,0 0.32564,0.06978 h 0.20934 l 0.30239,0.06978 q 0.83737,0.02326 0.83737,0.674552 0,0.186083 -0.0698,0.441947 l -1.04671,0.302386 -0.60478,-0.09304 q -0.25586,0.06978 -0.86063,0.162823 l -0.1163,-0.116302 q -0.16282,0.162823 -0.44195,0.162823 h -0.25586 l -0.6513,0.302385 -0.32564,-0.162823 h -0.1163 q -0.18609,0.232604 -0.46521,0.302385 l 0.0233,0.139563 -0.093,0.325645 0.13956,0.395427 -0.30238,0.60477 0.0698,0.930416 -0.11631,0.325646 0.0698,0.325646 -0.23261,0.511729 0.0698,0.279124 q 0.0233,0.02326 0.0233,0.116302 0,0.02326 -0.093,0.511729 -0.093,0.465208 -0.093,0.930416 v 0.209344 q 0.0233,0.02326 0.25586,0.302385 l -0.16282,0.395427 0.16282,0.465208 -0.1163,0.372166 0.25587,1.13976 0.0698,1.256062 0.37216,0.465208 -0.20934,0.511728 q 0.27913,0.488469 0.27913,0.790854 v 0.06978 q 0,0.04652 0.0233,0.116302 0,0.09304 0,0.116302 0,0.883895 -1.02346,0.930416 l -0.18608,-0.372166 -0.27913,-0.162823 -0.0465,-0.418687 -0.46521,-1.302583 v -0.255864 q -0.093,-0.418687 -0.093,-0.488468 0,-0.116302 0.0233,-0.162823 l -0.0698,-0.395427 0.0698,-0.395427 -0.0698,-0.255864 v -0.511729 l -0.2326,-1.465405 0.0465,-0.04652 -0.0465,-0.255865 0.0465,-0.325645 -0.16283,-0.302385 0.13957,-0.255865 v -1.209541 l 0.1163,-0.139562 v -0.837375 l 0.0698,-0.186083 -0.0698,-0.721072 0.093,-0.279125 q 0.0465,-0.395427 0.27912,-1.76779 h -0.093 l -0.30238,-0.09304 h -0.34891 l -0.65129,0.09304 -0.39543,-0.09304 -0.67455,0.139562 -0.2326,-0.04652 q -0.1163,0.02326 -0.27913,0.02326 -1.02346,-0.465208 -1.09324,-0.721072 l -0.1163,-0.395427 q 0.30239,-0.907156 0.83738,-0.907156 0.0233,0 0.79085,0.162823 l 1.3491,0.04652 0.65129,-0.139563 0.55825,0.02326 0.20935,0.02326 0.0698,-0.302385 0.0465,-0.674552 0.1163,-0.279125 -0.0698,-0.465208 q 0,-0.255864 0.18608,-0.441947 l -0.0233,-0.255865 0.25587,-0.279124 0.1163,-0.697812 0.093,-0.116302 -0.0698,-0.302386 q 0.27912,-0.325645 0.27912,-0.534989 -0.0233,-0.139562 -0.0233,-0.139562 0,0.186083 0.34891,-1.069979 l 0.16282,-0.116302 0.0233,-0.511728 0.0465,0.116302 v -0.06978 q 0,-0.395426 0.32565,-0.58151 l 0.13956,-0.209343 0.27913,-0.674552 h 0.0465 q 0.25586,0 0.25586,-0.302385 v -0.09304 l 0.65129,-0.232604 h 0.18609 q 0.30238,-0.09304 0.62803,-0.09304 h 0.16282 l 0.1163,-0.04652 0.51173,-0.116302 0.60477,0.139562 q 0.0465,0.02326 0.18608,0.06978 0.23261,-0.09304 0.32565,-0.09304 0.32565,0 0.60477,0.488468 l 0.32565,0.232604 0.2326,0.465208 0.34891,0.348906 0.093,0.651292 z m 6.44315,11.979106 q 0,0.279125 -0.41869,0.697812 -0.1163,0.372167 -0.3489,0.604771 l -0.13957,0.02326 -0.25586,0.441948 -0.41869,0.06978 -0.44195,0.279125 -0.2326,0.418687 -0.25586,-0.04652 q -0.25587,0.116302 -0.41869,0.139562 l -0.13956,0.209344 q -0.0698,-0.02326 -0.20935,-0.02326 -0.30238,0 -0.58151,0.418687 l -0.32564,-0.279125 q -0.093,0.02326 -0.27913,0.02326 -0.30238,0 -0.51173,-0.09304 h -0.39542 l -0.18609,-0.116302 q -0.88389,-0.139563 -1.1165,-0.674552 v -0.06978 l -0.27912,-0.139562 -0.13956,-0.395427 -0.27913,-0.186083 v -0.348906 l -0.27912,-1.023458 0.0465,-0.837375 0.093,-0.372166 v -0.488468 l 0.1163,-0.372167 -0.0233,-0.162823 0.16282,-0.279124 -0.0465,0.04652 q 0,-0.209343 0.11631,-0.441947 v -0.116302 l -0.0698,-0.55825 q 0,-0.395427 0.34891,-0.697812 0.0233,-0.04652 0.0233,-0.139562 0,-0.09304 -0.093,-0.372167 -0.0698,-0.302385 -0.0698,-0.418687 0,-0.279125 0.13956,-0.58151 0.18608,0.279125 0.53499,0.279125 h 0.0698 q 0.0465,-0.09304 0.20934,-0.209344 0.18609,-0.58151 0.51173,-0.976936 l 0.093,-0.09304 q 0,-0.09304 0.13957,-0.534989 h 0.18608 l 0.0465,-0.116302 0.18608,-0.04652 q 0.11631,-0.186083 0.13957,-0.209344 0.0465,-0.04652 0.51173,-0.302385 0.093,-0.162823 0.27912,-0.302385 0.093,-0.04652 0.2326,-0.09304 l 0.0931,-0.139562 q 0.62803,-0.209344 0.79085,-0.209344 0.18608,0 0.34891,0.09304 l 0.1163,-0.02326 0.16282,0.09304 q 0.27913,0.209344 0.55825,0.348906 l 0.39543,0.302385 v 0.09304 q 0.53499,0.418687 0.53499,1.18628 l -0.0698,0.232604 0.0698,0.767594 -0.20935,0.139562 -0.2326,0.60477 -0.44195,0.488469 -0.0233,0.372166 q -0.74433,0.534989 -1.37236,0.860635 -0.20935,0.325646 -0.65129,0.325646 h -0.0698 l -0.44194,0.279124 h -0.37217 l -0.55825,0.232604 -0.41869,-0.209343 h -0.0465 q -0.0465,0.186083 -0.093,0.558249 l -0.18608,0.139563 -0.0233,0.279125 -0.13956,0.395426 q 0.0698,0.55825 0.0698,0.721073 l -0.0931,0.06978 q 0,0.302385 -0.0233,0.441948 0,0.02326 -0.0233,0.06978 0,0.04652 0,0.06978 0,0.186083 0.18609,0.302385 0.0698,0.279125 0.2326,0.348906 l 0.16282,0.139563 0.51173,0.139562 v 0.06978 l 0.18609,0.04652 0.79085,0.04652 0.46521,-0.06978 0.2326,-0.162823 0.13956,-0.04652 0.23261,-0.348906 0.1163,-0.02326 0.58151,-0.186083 q 0.093,-0.162823 0.30239,-0.279125 l 0.0698,-0.116302 q 0.4652,-0.09304 0.53499,-0.488469 0.32564,-0.325645 0.83737,-0.325645 h 0.093 q 0.44195,0.511729 0.44195,0.837374 z m -2.30278,-6.698995 q 0,-0.06978 -0.0698,-0.279125 l -0.1163,-0.02326 -0.0465,0.02326 q -0.0233,0 -0.0931,0 -0.0465,0.02326 -0.093,0.02326 -0.0233,0 -0.0698,-0.02326 -0.0465,0 -0.0698,0 l -0.2326,0.162823 -0.20935,0.02326 -0.1163,0.04652 -0.39543,0.511729 -0.25586,0.186083 -0.37217,0.651291 -0.20934,0.139563 q -0.0698,0.395426 -0.32565,0.674551 l -0.093,0.162823 q 0.25587,-0.162823 0.58151,-0.162823 l 0.16282,-0.06978 0.0698,-0.209344 0.32564,0.02326 0.18608,-0.279125 h 0.13957 l 0.25586,0.09304 0.1163,-0.348906 h 0.16283 v -0.255865 l 0.30238,-0.06978 0.0698,-0.06978 0.0465,-0.209344 0.30239,-0.441947 q 0.0465,-0.116302 0.0465,-0.279125 z m 7.72246,-7.117683 q 0,0.279125 -0.37216,0.511729 v 0.04652 q -0.44195,0.534989 -0.7676,0.60477 l -0.3489,0.418687 -0.23261,0.302386 -0.53499,0.139562 -0.2326,0.325646 -0.37217,0.186083 -0.60477,0.534989 -0.37216,-0.348906 0.0698,-0.58151 0.25586,-0.418687 q 0.0233,-0.325646 0.37217,-0.55825 v -0.09304 l 0.13956,-0.09304 0.0233,-0.348906 0.37217,-0.09304 v -0.209343 l 0.27912,-0.04652 q 0.093,-0.465208 0.39543,-0.674552 l 0.0698,-0.04652 0.13956,-0.139562 0.18609,-0.55825 q 1.53518,0.372167 1.53518,1.13976 z m 2.37256,12.328012 q 0,0.53499 -0.18608,0.674552 l -0.1163,0.09304 -0.1163,0.325645 -0.37217,0.116302 q -0.16282,0.372167 -0.48847,0.58151 l -0.20934,0.06978 -0.30239,0.325645 -0.27912,0.06978 q -0.16283,0.418688 -0.67455,0.441948 -0.0465,0.06978 -0.20935,0.279125 -0.3489,0.232604 -0.72107,0.279125 l -0.1163,0.02326 -0.16283,0.209344 h -0.4652 l -0.37217,0.279124 -0.95368,-0.697812 -0.44194,-0.907155 -0.0233,-1.13976 -0.0931,-0.279125 0.27913,-2.046915 0.093,-0.09304 q -0.0698,-0.348906 -0.0698,-0.674551 0,-0.209344 0.13956,-0.860635 l 0.1163,-0.534989 q -0.0465,-0.139563 -0.18608,-0.302385 l 0.13956,-0.441948 0.0465,-0.534989 0.0465,-0.06978 q -0.093,-0.209344 -0.1163,-0.465208 0.0233,-0.04652 0.0465,-0.116303 0.0233,-0.09304 0.0233,-0.139562 -0.0698,-0.209344 -0.0698,-0.395427 0,-0.558249 0.62803,-0.511729 l 0.27913,0.02326 q 0.27912,-0.139563 0.3489,-0.139563 0.46521,0 0.62804,0.511729 v 0.09304 q 0.093,0.279125 0.093,0.534989 0,0.209344 -0.0465,0.302385 l -0.16283,1.16302 0.16283,0.325646 q 0,0.418687 -0.27913,0.744333 l 0.093,0.279125 -0.30238,0.883895 q -0.0465,0.58151 -0.1163,0.883895 v 0.58151 l -0.13957,0.325646 0.0233,0.232604 -0.0465,0.534989 0.0465,0.418687 0.34891,0.279125 0.27912,-0.04652 0.0465,-0.06978 0.18608,0.02326 0.30238,-0.09304 0.25587,-0.255865 0.093,-0.139562 0.16282,-0.02326 0.0465,-0.116302 0.0698,-0.09304 0.13957,0.09304 0.2326,-0.232605 0.13956,0.02326 0.0465,-0.162823 h 0.0465 l 0.0698,-0.186083 0.20934,-0.09304 0.44195,-0.209343 q 0.53499,-0.372167 1.04672,-0.372167 h 0.093 q 0.25586,0.162823 0.3489,0.418687 z"
       id="text1"
       transform="scale(1.0029484,0.99706031)"
       aria-label="Hi, I'm Xinfei" />
  </g>
</svg>
